<svg   viewBox="0 0 397 63" fill="none" xmlns="http://www.w3.org/2000/svg">
<path d="M0.65013 62.8607V0.3152H13.8739V26.1213H40.7183V0.3152H53.9115V62.8607H40.7183V37.024H13.8739V62.8607H0.65013ZM80.7547 62.8607H66.5843L88.1759 0.3152H105.217L126.778 62.8607H112.608L96.9408 14.6078H96.4522L80.7547 62.8607ZM79.8691 38.2761H113.341V48.5986H79.8691V38.2761ZM139.466 62.8607V0.3152H164.509C169.11 0.3152 172.948 0.997256 176.022 2.36137C179.097 3.72548 181.408 5.61894 182.955 8.04176C184.502 10.4442 185.276 13.2132 185.276 16.3486C185.276 18.7918 184.787 20.9397 183.81 22.7925C182.833 24.6249 181.489 26.1315 179.779 27.3124C178.089 28.4729 176.155 29.2974 173.976 29.7861V30.3969C176.358 30.4987 178.588 31.1706 180.664 32.4125C182.761 33.6545 184.461 35.3952 185.765 37.6348C187.068 39.854 187.719 42.5008 187.719 45.5751C187.719 48.8938 186.894 51.8562 185.245 54.4622C183.617 57.0479 181.204 59.0941 178.007 60.6007C174.811 62.1073 170.871 62.8607 166.189 62.8607H139.466ZM152.69 52.0496H163.47C167.156 52.0496 169.843 51.3472 171.533 49.9423C173.223 48.5171 174.068 46.6237 174.068 44.2619C174.068 42.5313 173.65 41.0044 172.816 39.681C171.981 38.3576 170.79 37.3192 169.243 36.5659C167.716 35.8126 165.893 35.4359 163.776 35.4359H152.69V52.0496ZM152.69 26.4878H162.493C164.305 26.4878 165.914 26.1722 167.319 25.5411C168.744 24.8895 169.863 23.9733 170.678 22.7925C171.513 21.6116 171.93 20.1966 171.93 18.5474C171.93 16.2875 171.126 14.4653 169.517 13.0808C167.929 11.6964 165.669 11.0041 162.738 11.0041H152.69V26.4878ZM214.707 0.3152V62.8607H201.484V0.3152H214.707ZM228.365 11.2179V0.3152H279.733V11.2179H260.585V62.8607H247.513V11.2179H228.365ZM296.49 62.8607H282.32L303.912 0.3152H320.953L342.514 62.8607H328.343L312.677 14.6078H312.188L296.49 62.8607ZM295.605 38.2761H329.076V48.5986H295.605V38.2761ZM345.177 11.2179V0.3152H396.545V11.2179H377.397V62.8607H364.326V11.2179H345.177Z" fill="currentColor"/>
</svg>
