<svg viewBox="0 0 406 142" fill="none" xmlns="http://www.w3.org/2000/svg">
<path d="M6.32301 83.6249V21.0794H19.5467V46.8855H46.3912V21.0794H59.5844V83.6249H46.3912V57.7882H19.5467V83.6249H6.32301ZM86.4276 83.6249H72.2572L93.8488 21.0794H110.89L132.451 83.6249H118.281L102.614 35.372H102.125L86.4276 83.6249ZM85.542 59.0404H119.014V69.3628H85.542V59.0404ZM145.139 83.6249V21.0794H170.182C174.783 21.0794 178.621 21.7615 181.695 23.1256C184.77 24.4897 187.08 26.3832 188.628 28.806C190.175 31.2084 190.949 33.9774 190.949 37.1128C190.949 39.556 190.46 41.7039 189.483 43.5567C188.506 45.3891 187.162 46.8957 185.452 48.0766C183.762 49.2371 181.828 50.0617 179.649 50.5503V51.1611C182.031 51.2629 184.261 51.9348 186.337 53.1767C188.434 54.4187 190.134 56.1594 191.437 58.399C192.74 60.6182 193.392 63.265 193.392 66.3394C193.392 69.658 192.567 72.6204 190.918 75.2264C189.289 77.8121 186.877 79.8583 183.68 81.3649C180.484 82.8716 176.544 83.6249 171.861 83.6249H145.139ZM158.363 72.8138H169.143C172.829 72.8138 175.516 72.1114 177.206 70.7066C178.896 69.2814 179.741 67.3879 179.741 65.0262C179.741 63.2956 179.323 61.7686 178.489 60.4452C177.654 59.1218 176.463 58.0834 174.915 57.3301C173.388 56.5768 171.566 56.2002 169.449 56.2002H158.363V72.8138ZM158.363 47.252H168.166C169.978 47.252 171.587 46.9364 172.991 46.3053C174.417 45.6538 175.536 44.7376 176.351 43.5567C177.186 42.3758 177.603 40.9608 177.603 39.3117C177.603 37.0517 176.799 35.2295 175.19 33.845C173.602 32.4606 171.342 31.7683 168.41 31.7683H158.363V47.252ZM220.38 21.0794V83.6249H207.157V21.0794H220.38ZM234.038 31.9821V21.0794H285.406V31.9821H266.257V83.6249H253.186V31.9821H234.038ZM302.163 83.6249H287.993L309.584 21.0794H326.626L348.187 83.6249H334.016L318.349 35.372H317.861L302.163 83.6249ZM301.278 59.0404H334.749V69.3628H301.278V59.0404ZM350.85 31.9821V21.0794H402.218V31.9821H383.07V83.6249H369.999V31.9821H350.85Z" fill="currentColor"/>
<path d="M76.3301 129.852V94.9431H89.421C92.1028 94.9431 94.3528 95.409 96.171 96.3408C98.0006 97.2726 99.3813 98.5794 100.313 100.261C101.256 101.932 101.728 103.881 101.728 106.108C101.728 108.346 101.251 110.29 100.296 111.937C99.3528 113.574 97.9608 114.841 96.1199 115.739C94.279 116.625 92.0176 117.068 89.3358 117.068H80.0119V111.818H88.4835C90.0517 111.818 91.3358 111.602 92.3358 111.17C93.3358 110.727 94.0744 110.085 94.5517 109.244C95.0403 108.392 95.2847 107.346 95.2847 106.108C95.2847 104.869 95.0403 103.812 94.5517 102.937C94.0631 102.051 93.3188 101.381 92.3188 100.926C91.3188 100.46 90.029 100.227 88.4494 100.227H82.654V129.852H76.3301ZM94.3642 114.034L103.006 129.852H95.9494L87.4608 114.034H94.3642ZM122.909 129.852V94.9431H145.613V100.244H129.233V109.721H144.437V115.023H129.233V124.551H145.75V129.852H122.909ZM171.908 129.852H165.158L177.448 94.9431H185.255L197.561 129.852H190.811L181.488 102.102H181.215L171.908 129.852ZM172.13 116.165H190.539V121.244H172.13V116.165ZM217.519 129.852V94.9431H223.843V124.551H239.218V129.852H217.519ZM254.08 100.244V94.9431H281.932V100.244H271.142V129.852H264.87V100.244H254.08ZM300.275 94.9431H307.417L315.957 110.386H316.298L324.838 94.9431H331.98L319.281 116.829V129.852H312.974V116.829L300.275 94.9431Z" fill="currentColor"/>
</svg>
