<svg viewBox="0 0 256 36" fill="none" xmlns="http://www.w3.org/2000/svg">
<path d="M0.146063 35.4305V0.52145H13.237C15.9188 0.52145 18.1688 0.987359 19.987 1.91918C21.8165 2.851 23.1972 4.15781 24.129 5.83963C25.0722 7.51009 25.5438 9.45895 25.5438 11.6862C25.5438 13.9249 25.0665 15.868 24.112 17.5158C23.1688 19.1521 21.7767 20.4192 19.9358 21.3169C18.0949 22.2033 15.8336 22.6465 13.1517 22.6465H3.82788V17.3965H12.2995C13.8677 17.3965 15.1517 17.1805 16.1517 16.7487C17.1517 16.3055 17.8904 15.6635 18.3677 14.8226C18.8563 13.9703 19.1006 12.9249 19.1006 11.6862C19.1006 10.4476 18.8563 9.39077 18.3677 8.51577C17.879 7.62941 17.1347 6.95895 16.1347 6.5044C15.1347 6.0385 13.8449 5.80554 12.2654 5.80554H6.46993V35.4305H0.146063ZM18.1802 19.6124L26.8222 35.4305H19.7654L11.2767 19.6124H18.1802ZM46.7248 35.4305V0.52145H69.4294V5.82259H53.0487V15.2999H68.2532V20.601H53.0487V30.1294H69.5657V35.4305H46.7248ZM95.724 35.4305H88.974L101.264 0.52145H109.071L121.377 35.4305H114.627L105.304 7.68054H105.031L95.724 35.4305ZM95.9456 21.743H114.355V26.8226H95.9456V21.743ZM141.335 35.4305V0.52145H147.659V30.1294H163.034V35.4305H141.335ZM177.896 5.82259V0.52145H205.748V5.82259H194.958V35.4305H188.685V5.82259H177.896ZM224.091 0.52145H231.233L239.773 15.9646H240.114L248.653 0.52145H255.795L243.097 22.4078V35.4305H236.79V22.4078L224.091 0.52145Z" fill="currentColor"/>
</svg>
